<?xml version="1.0" encoding="utf-8"?>
<!-- Generator: Adobe Illustrator 24.2.3, SVG Export Plug-In . SVG Version: 6.00 Build 0)  -->
<svg version="1.1" id="YESSTYLE" xmlns="http://www.w3.org/2000/svg" xmlns:xlink="http://www.w3.org/1999/xlink" x="0px" y="0px"
	 width="182px" height="22px" viewBox="0 0 182 22" style="enable-background:new 0 0 182 22;" xml:space="preserve">
<style type="text/css">
	.st0{fill:#898989;}
	.st1{fill:#231815;}
	.st2{fill:#52B134;}
</style>
<path id="r" class="st0" d="M181.3,0.9c0.4,0.4,0.6,0.9,0.6,1.5c0,0.6-0.2,1.1-0.6,1.5c-0.8,0.8-2.2,0.8-3,0
	c-0.4-0.4-0.6-0.9-0.6-1.5c0-0.6,0.2-1.1,0.6-1.5C179.1,0.1,180.5,0.1,181.3,0.9L181.3,0.9z M181.1,1.1c-0.7-0.7-1.9-0.7-2.6,0
	c-0.3,0.3-0.5,0.8-0.5,1.3c0,1,0.8,1.8,1.8,1.8c1,0,1.8-0.8,1.8-1.8C181.6,1.9,181.4,1.4,181.1,1.1L181.1,1.1z M179,3.5V1.3h0.8
	c0.4,0,0.6,0.3,0.7,0.6c0,0,0,0,0,0c0,0.2-0.1,0.4-0.2,0.5c-0.1,0.1-0.1,0.1-0.2,0.1l0.4,1h-0.4l-0.4-0.9h-0.4v0.9L179,3.5z
	 M180.2,1.9c0-0.2-0.1-0.3-0.3-0.3c0,0,0,0,0,0h-0.5v0.6h0.5C180,2.2,180.2,2.1,180.2,1.9C180.2,1.9,180.2,1.9,180.2,1.9z"/>
<path id="e_1_" class="st1" d="M161.8,21.8c0.1-0.4,0.1-0.7,0.1-1.1c0-0.5,0.1-1.4,0.1-2.7c0-2.1,0.1-4.4,0.1-7s0-4.9-0.1-7
	c0-1.3-0.1-2.2-0.1-2.7c0-0.4,0-0.7-0.1-1.1c0.6,0.1,1.2,0.2,1.8,0.2c0.8,0,1.7,0.1,2.6,0.1h2.3c0.9,0,1.8,0,2.5-0.1
	c0.6,0,1.3-0.1,1.9-0.2c-0.1,0.4-0.1,0.7-0.1,1.1c0,0.4,0,0.7,0.1,1c-0.6-0.1-1.2-0.2-1.9-0.2c-0.9-0.1-1.7-0.1-2.6-0.1h-1.1
	c-0.9,0-1.8,0-2.7,0l-0.1,7.7h2.7c0.9,0,1.8,0,2.8-0.1c0.7,0,1.3-0.1,2-0.2c-0.1,0.3-0.1,0.7-0.1,1c0,0.3,0,0.7,0.1,1
	c-0.6-0.1-1.3-0.2-2-0.2c-1,0-1.9-0.1-2.8-0.1h-2.7c0,3.3,0,6.2,0.1,8.7l2.1,0h1c0.9,0,1.9,0,2.9-0.1c0.7,0,1.4-0.1,2.1-0.2
	c-0.1,0.4-0.1,0.7-0.1,1.1c0,0.4,0,0.7,0.1,1.1c-0.4-0.1-1.1-0.1-2-0.2c-0.9,0-1.7-0.1-2.4-0.1h-2.3c-0.8,0-1.6,0-2.4,0.1
	C162.9,21.8,162.3,21.8,161.8,21.8z"/>
<path id="l" class="st1" d="M141,21.8c0.1-0.4,0.1-0.7,0.1-1.1c0-0.5,0.1-1.4,0.1-2.7c0-2,0.1-4.4,0.1-6.9s0-4.9-0.1-6.9
	c0-1.3-0.1-2.2-0.1-2.7c0-0.4,0-0.7-0.1-1.1c0.5,0.1,1,0.1,1.6,0.1c0.5,0,1,0,1.6-0.1c-0.1,0.3-0.1,0.7-0.1,1c0,0.5-0.1,1.4-0.1,2.8
	c0,2-0.1,4.3-0.1,6.9c0,3.4,0,6.4,0.1,8.9c0.7,0,1.4,0,2.2,0h1.1c0.9,0,1.9,0,2.9-0.1c0.7,0,1.4-0.1,2.1-0.2
	c-0.1,0.4-0.1,0.7-0.1,1.1c0,0.4,0,0.7,0.1,1.1c-0.4-0.1-1.1-0.1-2-0.2c-0.9,0-1.7-0.1-2.4-0.1h-2.5c-0.8,0-1.6,0-2.5,0.1
	C142.3,21.7,141.6,21.8,141,21.8z"/>
<path id="y_1_" class="st1" d="M121.2,12.9c-0.9-1.6-2-3.5-3.3-5.7l-1.9-3.1c-0.9-1.4-1.5-2.4-1.8-2.9c-0.2-0.3-0.4-0.6-0.6-0.9
	c0.6,0.1,1.2,0.1,1.9,0.1s1.4,0,1.9-0.1c0.2,0.5,0.4,1.1,0.7,1.6c0.2,0.5,0.6,1.2,1.2,2.2l1.1,2.1c1,1.8,1.9,3.3,2.7,4.6l0,0
	c0.8-1.2,1.6-2.7,2.5-4.4l1.3-2.4c0.5-0.8,0.8-1.5,1.1-2c0.3-0.6,0.5-1.2,0.7-1.8c0.5,0.1,0.9,0.1,1.4,0.1c0.5,0,0.9,0,1.3-0.1
	c-0.2,0.3-0.4,0.6-0.6,0.9c-0.3,0.5-0.9,1.5-1.8,2.9L127,7c-1.2,2-2.3,3.7-3.1,5.3v1.8c0,2.4,0,4.1,0,5.1c0,0.8,0.1,1.7,0.2,2.5
	c-1-0.1-2.1-0.1-3.1,0c0.1-0.8,0.2-1.7,0.2-2.5c0-1,0-2.7,0-5.1L121.2,12.9z"/>
<path id="t" class="st1" d="M97,17.9c0-2,0.1-4.3,0.1-6.8c0-3.5,0-6.5-0.1-9.1h-1.6c-1,0-2,0-3,0.1c-0.7,0-1.4,0.1-2,0.2
	c0.1-0.3,0.1-0.7,0.1-1c0-0.3,0-0.7-0.1-1c1.1,0.1,2.4,0.1,3.8,0.2c1.4,0,2.5,0.1,3.3,0.1H99c0.8,0,1.9,0,3.4-0.1
	c1.4,0,2.7-0.1,3.7-0.2c-0.1,0.3-0.1,0.7-0.1,1c0,0.3,0,0.7,0.1,1C105.4,2.1,104.7,2,104,2c-1,0-2,0-3,0h-1.2
	c-0.1,2.5-0.1,5.5-0.1,9c0,2.5,0,4.8,0.1,6.8c0,1.3,0.1,2.2,0.1,2.7c0,0.4,0,0.7,0.1,1.1c-1-0.1-2.1-0.1-3.1,0
	c0.1-0.4,0.1-0.7,0.1-1.1C96.9,20.1,97,19.2,97,17.9z"/>
<path id="s_1_" class="st1" d="M79.8,3.7C79.5,3,78.9,2.4,78.2,2c-0.7-0.4-1.4-0.6-2.2-0.6c-1,0-2,0.3-2.8,1C72.5,3.1,72.1,4,72.1,5
	c0,0.9,0.4,1.8,1,2.4c1,0.8,2.1,1.4,3.3,1.8c1.9,0.7,3.3,1.4,4.1,2.4c0.8,1,1.3,2.4,1.2,3.7c0,1.8-0.7,3.5-2,4.7
	c-1.3,1.3-3.1,2-4.9,1.9c-1.1,0-2.2-0.1-3.2-0.5c-0.8-0.3-1.6-0.8-2.2-1.4c0.1-0.4,0.2-0.8,0.3-1.1c0.1-0.3,0.1-0.7,0.2-1.1l0.5-0.1
	c0.5,0.8,1.2,1.6,2,2c0.8,0.5,1.8,0.8,2.7,0.8c1.2,0,2.3-0.4,3.2-1.2c0.8-0.8,1.3-2,1.2-3.1c0-1-0.4-1.9-1-2.6
	c-1-0.9-2.1-1.5-3.3-1.9c-1.9-0.7-3.3-1.4-4.1-2.4c-0.9-1-1.3-2.3-1.2-3.6c0-1.6,0.6-3.1,1.8-4.1C72.8,0.6,74.4,0,76,0
	c0.9,0,1.8,0.1,2.6,0.3c0.8,0.2,1.6,0.6,2.3,1c-0.1,0.4-0.3,0.8-0.4,1.1c-0.1,0.3-0.2,0.7-0.3,1.2L79.8,3.7z"/>
<path id="s" class="st2" d="M58.2,3.7C57.9,3,57.3,2.4,56.6,2c-0.7-0.4-1.4-0.6-2.2-0.6c-1,0-2,0.3-2.8,1C50.9,3.1,50.5,4,50.5,5
	c0,0.9,0.4,1.8,1,2.4c1,0.8,2.1,1.4,3.3,1.8c1.9,0.7,3.3,1.4,4.1,2.4c0.8,1,1.3,2.4,1.2,3.7c0,1.8-0.7,3.5-2,4.7
	c-1.3,1.3-3.1,2-4.9,1.9c-1.1,0-2.2-0.1-3.2-0.5c-0.8-0.3-1.6-0.8-2.2-1.4c0.1-0.4,0.2-0.8,0.3-1.1s0.1-0.7,0.2-1.1l0.5-0.1
	c0.5,0.8,1.2,1.6,2,2c0.8,0.5,1.8,0.8,2.7,0.8c1.2,0,2.3-0.4,3.2-1.2c0.8-0.8,1.3-2,1.2-3.1c0-1-0.4-1.9-1-2.6
	c-1-0.9-2.1-1.5-3.3-1.9c-1.9-0.7-3.3-1.4-4.1-2.4c-0.9-1-1.3-2.3-1.2-3.6c0-1.6,0.6-3.1,1.8-4.1C51.2,0.6,52.8,0,54.4,0
	c0.9,0,1.8,0.1,2.6,0.3c0.8,0.2,1.6,0.6,2.3,1C59.2,1.8,59,2.2,59,2.5c-0.1,0.3-0.2,0.7-0.3,1.2L58.2,3.7z"/>
<path id="e" class="st2" d="M27.1,21.8c0.1-0.4,0.1-0.7,0.1-1.1c0-0.5,0.1-1.4,0.1-2.7c0-2.1,0.1-4.4,0.1-7s0-4.9-0.1-7
	c0-1.3-0.1-2.2-0.1-2.7c0-0.4,0-0.7-0.1-1.1c0.6,0.1,1.2,0.2,1.8,0.2c0.8,0,1.7,0.1,2.6,0.1h2.3c0.9,0,1.8,0,2.5-0.1
	c0.6,0,1.3-0.1,1.9-0.2c-0.1,0.4-0.1,0.7-0.1,1.1c0,0.4,0,0.7,0.1,1c-0.6-0.1-1.2-0.2-1.9-0.2C35.5,2.1,34.6,2,33.8,2h-1.1
	c-0.9,0-1.8,0-2.7,0l-0.1,7.7h2.7c0.9,0,1.8,0,2.8-0.1c0.7,0,1.3-0.1,2-0.2c-0.1,0.3-0.1,0.7-0.1,1c0,0.3,0,0.7,0.1,1
	c-0.6-0.1-1.3-0.2-2-0.2c-1,0-1.9-0.1-2.8-0.1H30c0,3.3,0,6.2,0.1,8.7l2.1,0h1c0.9,0,1.9,0,2.9-0.1c0.7,0,1.4-0.1,2.1-0.2
	c-0.1,0.4-0.1,0.7-0.1,1.1c0,0.4,0,0.7,0.1,1.1c-0.4-0.1-1.1-0.1-2-0.2c-0.9,0-1.7-0.1-2.4-0.1h-2.3c-0.8,0-1.6,0-2.4,0.1
	C28.2,21.8,27.5,21.8,27.1,21.8z"/>
<path id="y" class="st2" d="M8,12.9c-0.9-1.6-2-3.5-3.3-5.7L2.8,4.2C1.9,2.8,1.3,1.8,0.9,1.3C0.7,1,0.5,0.7,0.3,0.4
	c0.6,0.1,1.2,0.1,1.9,0.1c0.7,0,1.4,0,1.9-0.1C4.3,0.9,4.5,1.5,4.8,2C5,2.5,5.4,3.2,5.9,4.2l1.1,2.1c1,1.8,1.9,3.3,2.7,4.6l0,0
	c0.8-1.2,1.6-2.7,2.5-4.4l1.3-2.3c0.5-0.8,0.8-1.5,1.1-2C15,1.6,15.2,1,15.4,0.4c0.5,0.1,0.9,0.1,1.4,0.1c0.4,0,0.9,0,1.3-0.1
	c-0.2,0.3-0.5,0.6-0.6,0.9c-0.3,0.5-0.9,1.5-1.8,2.9L13.8,7c-1.2,2-2.3,3.7-3.1,5.3v1.8c0,2.4,0,4.1,0,5.1c0,0.8,0.1,1.7,0.2,2.5
	c-0.5-0.1-1-0.1-1.6-0.1c-0.5,0-1,0-1.6,0.1C7.9,20.8,8,20,8,19.1c0-1,0-2.7,0-5.1L8,12.9z"/>
</svg>
